<?xml version="1.0" encoding="UTF-8"?> <svg xmlns="http://www.w3.org/2000/svg" width="88" height="89" viewBox="0 0 88 89" fill="none"> <path d="M22 16.8174C19.0826 16.8174 16.2847 17.9763 14.2218 20.0392C12.1589 22.1021 11 24.9 11 27.8174V28.9229L44 46.6934L77 28.9284V27.8174C77 24.9 75.8411 22.1021 73.7782 20.0392C71.7153 17.9763 68.9174 16.8174 66 16.8174H22ZM77 35.1709L45.3035 52.2374C44.9029 52.453 44.455 52.5659 44 52.5659C43.545 52.5659 43.0971 52.453 42.6965 52.2374L11 35.1709V60.8174C11 63.7348 12.1589 66.5327 14.2218 68.5956C16.2847 70.6585 19.0826 71.8174 22 71.8174H66C68.9174 71.8174 71.7153 70.6585 73.7782 68.5956C75.8411 66.5327 77 63.7348 77 60.8174V35.1709Z" fill="white" fill-opacity="0.7"></path> <circle cx="74.5" cy="18.8174" r="8.5" fill="white"></circle> <path d="M75.6477 15.4992V21.3174H74.9432V16.2378H74.9091L73.4886 17.181V16.4651L74.9432 15.4992H75.6477Z" fill="black" fill-opacity="0.7"></path> </svg> 