<?xml version="1.0" encoding="UTF-8"?> <svg xmlns="http://www.w3.org/2000/svg" width="25" height="25" viewBox="0 0 25 25" fill="none"> <path d="M10.6667 9.36672V4.7334H9.33327V9.36672H4.69995V10.7002H9.33327V15.3667H10.6667V10.7002H15.3V9.36672H10.6667Z" fill="black"></path> <path d="M17.6 16.7333C19.1667 14.9666 20.1333 12.5999 20.1333 10.0666C20.1333 4.49999 15.6 0 10.0666 0C4.49999 0 0 4.53332 0 10.0666C0 15.6333 4.53332 20.1333 10.0666 20.1333C12.6334 20.1333 14.9666 19.1667 16.7333 17.6L24.1333 25L24.9999 24.1334L17.6 16.7333ZM10.0667 18.8666C5.19993 18.8666 1.23339 14.8999 1.23339 10.0333C1.23339 5.16654 5.20011 1.2 10.0667 1.2C14.9335 1.2 18.9 5.16671 18.9 10.0333C18.9 14.9331 14.9335 18.8666 10.0667 18.8666Z" fill="black"></path> </svg> 